<?xml version="1.0" standalone="no"?><!DOCTYPE svg PUBLIC "-//W3C//DTD SVG 1.1//EN" "http://www.w3.org/Graphics/SVG/1.1/DTD/svg11.dtd"><svg t="1590226361134" class="icon" viewBox="0 0 1024 1024" version="1.1" xmlns="http://www.w3.org/2000/svg" p-id="1861" xmlns:xlink="http://www.w3.org/1999/xlink" width="200" height="200"><defs><style type="text/css"></style></defs><path d="M573.415 1024H197.602A153.79 153.79 0 0 1 43.98 870.378V153.622A153.79 153.79 0 0 1 197.602 0h460.811a153.79 153.79 0 0 1 153.623 153.622v369.163A270.027 270.027 0 0 0 735.253 512a281.539 281.539 0 0 0-162.061 511.888z m-397.16-665.622a38.392 38.392 0 0 0 0 76.783h204.811a38.392 38.392 0 0 0 0-76.783z m0-166.364a38.392 38.392 0 0 0 0 76.783h512a38.392 38.392 0 0 0 0-76.783z m580.233 813.88A223.532 223.532 0 1 1 980.02 782.362a223.532 223.532 0 0 1-223.532 223.532zM634.72 816.227a19.056 19.056 0 1 0 0 38.112h57.057v38.504a19.056 19.056 0 1 0 38.112 0v-38.504h57.336a24.7 24.7 0 0 0 2.738 0h27.942l-10.562 10.562a19.056 19.056 0 0 0 26.935 26.936l42.695-42.695a19.336 19.336 0 0 0 5.588-13.691v-1.174a3524.485 3524.485 0 0 0 0-0.894v-0.726a0.615 0.615 0 0 0 0-0.392 4.638 4.638 0 0 0 0-0.558v-0.615a1.676 1.676 0 0 0 0-0.28v-2.961a1.844 1.844 0 0 1 0-0.447 1.341 1.341 0 0 0 0-0.392v-2.403l-0.335-0.502v-0.336l-0.335-0.391v-0.335l-0.392-0.447-0.39-0.391-42.64-42.807a19.056 19.056 0 0 0-26.935 26.992l10.226 10.17h-87.736v-30.847h53.2a19.056 19.056 0 0 0 0-38.112H749l53.312-71.419a19 19 0 0 0-15.144-30.456 19.28 19.28 0 0 0-15.312 7.656l-60.857 81.198-61.024-81.31a19.056 19.056 0 0 0-30.512 22.912l53.536 71.363h-38.224a19.056 19.056 0 1 0 0 38.112h57.056v30.568z" p-id="1862"></path></svg>