<?xml version="1.0" standalone="no"?><!DOCTYPE svg PUBLIC "-//W3C//DTD SVG 1.1//EN" "http://www.w3.org/Graphics/SVG/1.1/DTD/svg11.dtd"><svg t="1590226345214" class="icon" viewBox="0 0 1024 1024" version="1.1" xmlns="http://www.w3.org/2000/svg" p-id="1616" xmlns:xlink="http://www.w3.org/1999/xlink" width="200" height="200"><defs><style type="text/css"></style></defs><path d="M384.512 0C172.544 0 1.024 84.992 1.024 189.952s171.52 189.952 383.488 189.952S768 294.912 768 189.952 596.48 0 384.512 0z" p-id="1617"></path><path d="M505.344 429.056a755.023 755.023 0 0 1-120.832 9.728c-182.272 0-334.848-63.488-373.76-147.968-6.144 13.824-9.728 27.648-9.728 41.984 0 104.96 171.52 190.464 383.488 190.464 10.24 0 20.48-0.512 30.208-1.024 24.064-36.352 54.784-68.096 90.624-93.184z m251.904-52.224c6.656-13.824 10.24-28.672 10.24-43.52 0-14.336-3.584-28.672-9.728-41.984-13.824 30.208-41.984 57.344-80.896 80.384 5.632-0.512 10.752-1.024 16.384-1.024 22.016 0 43.52 2.048 64 6.144z" p-id="1618"></path><path d="M384.512 564.224c-182.272 0-334.848-63.488-373.76-147.968-6.144 13.824-9.728 27.648-9.728 41.984 0 101.888 162.304 185.344 365.568 189.952 4.608-29.696 13.312-57.856 25.6-83.968h-7.68z" p-id="1619"></path><path d="M363.008 688.64C190.464 684.032 48.64 622.592 11.264 541.184c-6.144 13.824-9.728 27.648-9.728 41.984 0 102.4 163.84 185.856 369.152 189.952-5.12-23.04-8.192-47.104-8.192-71.68-0.512-4.096 0-8.192 0.512-12.8z" p-id="1620"></path><path d="M10.752 666.624c-6.144 13.824-9.728 27.648-9.728 41.984 0 104.96 171.52 190.464 383.488 190.464 14.336 0 28.16-0.512 41.984-1.024-18.432-25.088-33.28-53.248-44.032-83.456-181.76-0.512-332.8-64-371.712-147.968z" p-id="1621"></path><path d="M459.776 935.936c-24.576 2.56-49.664 3.584-75.264 3.584-182.272 0-334.848-63.488-373.76-147.968-6.144 13.824-9.728 27.648-9.728 41.984 0 104.96 171.52 189.952 383.488 189.952 62.464 0 121.344-7.68 173.056-20.48-36.352-16.384-69.632-39.424-97.792-67.072z" p-id="1622"></path><path d="M710.656 390.144c-172.032 0-311.296 139.264-311.296 311.296 0 172.032 139.264 311.296 311.296 311.296 172.032 0 311.296-139.264 311.296-311.296 0-171.52-139.264-311.296-311.296-311.296z m189.44 332.8c0 5.632-4.608 10.24-10.24 10.24h-358.4c-5.632 0-10.24-4.608-10.24-10.24v-42.496c0-5.632 4.608-10.24 10.24-10.24h358.4c5.632 0 10.24 4.608 10.24 10.24v42.496z" p-id="1623"></path></svg>