<?xml version="1.0" standalone="no"?><!DOCTYPE svg PUBLIC "-//W3C//DTD SVG 1.1//EN" "http://www.w3.org/Graphics/SVG/1.1/DTD/svg11.dtd"><svg t="1590831086964" class="icon" viewBox="0 0 1024 1024" version="1.1" xmlns="http://www.w3.org/2000/svg" p-id="890" xmlns:xlink="http://www.w3.org/1999/xlink" width="200" height="200"><defs><style type="text/css"></style></defs><path d="M416.57445533 5.05009033h5.96422758l399.59486145 119.28245503c41.74854475 11.92845517 71.56968267 59.64227589 59.64227589 101.38977223v5.96527598l-11.92950353 35.78431718c35.78536553 23.85586197 59.64227589 59.64017914 59.64227588 101.38872387v41.74959313h-536.76999926V828.09672358h536.76999926V887.73899947c0 65.60545511-53.67699992 119.28245503-119.28350341 119.28245503H213.79491081c-65.60545511 0-119.28245503-53.67699992-119.28245503-119.28245503V368.86168301c0-35.78536553 17.89163439-71.56968267 47.71172397-95.42659306l11.92950353-95.42554468c5.96422759-47.71172396 47.71172396-77.5328619 89.4613171-77.53286188h5.96422758l41.74854474 5.96422757 17.89268278-59.6422759c17.89163439-23.85586197 59.64122752-47.71172396 107.35399985-41.74854473z m512.91308889 477.12982011V780.38499962h-477.12772336V482.17991044h477.12772336zM571.64227589 571.64122752c-35.78431717 0-59.64122752 23.85586197-59.64122753 59.64122751s23.85691035 59.64122752 59.64122753 59.64122752 59.64122752-23.85691035 59.64122752-59.64227589c0-29.82008956-23.85691035-59.64017914-59.64227589-59.64017914z m-357.84631671-375.73899947l-11.92845518 65.60545511h483.09299932c0-11.92845517-5.96527597-23.85691035-17.89268276-29.82113796h-5.96422759L249.58027635 172.0453177c-17.89268278 0-29.82113796 11.92845517-35.78431717 23.85691033z m161.03099977-119.28245503l-17.89268275 53.67699993 310.13354436 41.74854475c41.74854475 5.96527597 77.53391028 41.74959313 77.53391028 83.49813785h71.56863432l11.92845517-35.78536552c5.96422759-11.92740681 0-29.82008956-17.89268277-35.78431715h-5.96317921L404.64600014 64.69131785c-11.92845517-5.96422759-23.85691035 0-29.82008956 11.92845517z" p-id="891"></path></svg>