<?xml version="1.0" standalone="no"?><!DOCTYPE svg PUBLIC "-//W3C//DTD SVG 1.1//EN" "http://www.w3.org/Graphics/SVG/1.1/DTD/svg11.dtd"><svg t="1590841932732" class="icon" viewBox="0 0 1024 1024" version="1.1" xmlns="http://www.w3.org/2000/svg" p-id="890" xmlns:xlink="http://www.w3.org/1999/xlink" width="200" height="200"><defs><style type="text/css"></style></defs><path d="M881.62555831 6.68300308H136.94892844a133.13825592 133.13825592 0 0 0-132.97743534 132.9774353v744.67912324c0 73.35039619 59.68064598 132.97743532 132.97743534 132.9774353h744.67912321c73.29678936 0 132.97743532-59.62703911 132.97743532-132.9774353V139.66043838c0-73.35039619-59.62703911-132.97743532-132.97743532-132.9774353zM261.6297666 823.7538323c-72.5525266 0-128.35103833-56.43556073-128.35103831-129.78595694 0-73.40400307 55.79851171-129.84081045 128.35103831-129.84081047 66.96743942 0 128.35103833 50.79811333 128.35103835 129.84081047 0 73.35039619-55.79851171 129.78595694-128.35103835 129.78595694z m153.24456982-559.03980102L279.12804427 438.17088204a39.83987308 39.83987308 0 0 1-56.59513467 6.38295678l-114.41450047-93.08520208c-17.07440943-13.93653787-19.68119898-39.04200345-5.7970213-56.17001975s39.04200345-19.68119898 56.1164129-5.7446611l82.92483141 67.44616119 110.69194008-141.3824929a39.83987308 39.83987308 0 1 1 62.81851752 49.0964071z m454.51888358 477.17838017H513.64934605a53.19172213 53.19172213 0 1 1 0-106.38219759h355.74262727a53.19172213 53.19172213 0 1 1 0 106.38219759z m0-373.45533235H513.64934605a53.19172213 53.19172213 0 1 1 0-106.38344427h355.74262727a53.19172213 53.19172213 0 1 1 0 106.38344427z" p-id="891"></path></svg>