<?xml version="1.0" standalone="no"?><!DOCTYPE svg PUBLIC "-//W3C//DTD SVG 1.1//EN" "http://www.w3.org/Graphics/SVG/1.1/DTD/svg11.dtd"><svg t="1593856244966" class="icon" viewBox="0 0 1024 1024" version="1.1" xmlns="http://www.w3.org/2000/svg" p-id="7958" xmlns:xlink="http://www.w3.org/1999/xlink" width="200" height="200"><defs><style type="text/css"></style></defs><path d="M222.7712 611.2256a140.4416 140.4416 0 0 0-89.6-4.3008V417.1264a140.8 140.8 0 0 0 89.6-4.3008v198.4z m0 262.4V1024h-89.6v-146.0736a140.8 140.8 0 0 0 89.6-4.3008z m0-723.2a140.4416 140.4416 0 0 0-89.6-4.352V0h89.6v150.4256z m-51.2 246.3744a115.2 115.2 0 1 1 0-230.4 115.2 115.2 0 0 1 0 230.4z m0 460.8a115.2 115.2 0 1 1 0-230.4 115.2 115.2 0 0 1 0 230.4z m256-691.2h563.2V256h-563.2V166.4z m0 460.8h563.2V716.8h-563.2v-89.6z m0-281.6h422.4V435.2h-422.4V345.6z m0 473.6h422.4v89.6h-422.4V819.2z" p-id="7959"></path></svg>