<?xml version="1.0" standalone="no"?><!DOCTYPE svg PUBLIC "-//W3C//DTD SVG 1.1//EN" "http://www.w3.org/Graphics/SVG/1.1/DTD/svg11.dtd"><svg t="1590226366286" class="icon" viewBox="0 0 1024 1024" version="1.1" xmlns="http://www.w3.org/2000/svg" p-id="1980" xmlns:xlink="http://www.w3.org/1999/xlink" width="200" height="200"><defs><style type="text/css"></style></defs><path d="M965.866 723.736a15.567 15.567 0 0 1-6.503 5.267 49.103 49.103 0 0 0-22.174 16.132 40.787 40.787 0 0 0-9.236 26.017 41.218 41.218 0 0 0 7.738 24.91 42.363 42.363 0 0 0 20.293 15.285 46.658 46.658 0 0 1 5.007 3.382 18.93 18.93 0 0 1 6.504 9.62c0.55 4.051 0.417 8.16-0.392 12.167a74.906 74.906 0 0 1-4.164 14.502 64.548 64.548 0 0 1-7.086 13.009 25.175 25.175 0 0 1-9.235 8.323 20.161 20.161 0 0 1-8.784 2.536 25.15 25.15 0 0 1-8.389-1.689 89.738 89.738 0 0 0-10.467-2.28 49.28 49.28 0 0 0-13.009-0.45 65.895 65.895 0 0 0-13.009 2.73 25.405 25.405 0 0 0-11.12 7.15 41.268 41.268 0 0 0-11.71 23.872 46.975 46.975 0 0 0 3.774 25.556 15.937 15.937 0 0 1-1.234 16.783 30.007 30.007 0 0 1-7.936 6.894 84.088 84.088 0 0 1-11.901 6.505 73.928 73.928 0 0 1-13.595 4.614 56.365 56.365 0 0 1-12.552 1.694 10.679 10.679 0 0 1-7.086-2.927 15.586 15.586 0 0 1-4.62-6.504h-0.391a51.983 51.983 0 0 0-15.673-22.438 38.998 38.998 0 0 0-26.013-9.431 39.808 39.808 0 0 0-26.017 9.43 51.216 51.216 0 0 0-16.13 22.049 14.515 14.515 0 0 1-6.5 7.346 19.514 19.514 0 0 1-9.235 2.28 49.564 49.564 0 0 1-13.008-2.084 132.975 132.975 0 0 1-14.637-5.267 69.304 69.304 0 0 1-13.004-7.35 35.074 35.074 0 0 1-8.778-8.324 13.012 13.012 0 0 1-2.28-6.961 26.063 26.063 0 0 1 3.12-11.12 41.836 41.836 0 0 0 3.578-21.984 37.986 37.986 0 0 0-10.663-22.83 27.362 27.362 0 0 0-14.246-8.193 56.506 56.506 0 0 0-15.936-1.429 69.518 69.518 0 0 0-18.015 3.313 17.013 17.013 0 0 1-11.705-0.843 18.404 18.404 0 0 1-8.584-7.741 86.304 86.304 0 0 1-7.09-13.395 83.357 83.357 0 0 1-4.81-15.093 35.207 35.207 0 0 1-0.848-13.005 13.01 13.01 0 0 1 8.389-11.71 59.568 59.568 0 0 0 22.634-16.582 38.208 38.208 0 0 0 10.017-26.017 36.417 36.417 0 0 0-10.017-25.556 61.273 61.273 0 0 0-22.634-15.935 11.47 11.47 0 0 1-6.505-6.114 20.875 20.875 0 0 1-1.885-8.845 51.045 51.045 0 0 1 1.69-12.166 84.923 84.923 0 0 1 4.424-13.006 71.848 71.848 0 0 1 6.504-11.515 25.425 25.425 0 0 1 7.737-7.737 9.621 9.621 0 0 1 6.505-1.693c2.349 0.333 4.66 0.903 6.894 1.693a51.117 51.117 0 0 0 26.013 3.122 42.042 42.042 0 0 0 24.067-11.967 29.252 29.252 0 0 0 7.347-12.358 69.356 69.356 0 0 0 2.925-27.446c-0.428-3.903-0.777-6.698-1.037-8.392a42.313 42.313 0 0 1-1.498-5.853 9.11 9.11 0 0 1 0.651-5.854 24.066 24.066 0 0 1 8.975-10.278 70.387 70.387 0 0 1 14.051-7.346 90.48 90.48 0 0 1 14.828-4.294 54.767 54.767 0 0 1 10.99-1.493 10.723 10.723 0 0 1 8.583 3.577 20.87 20.87 0 0 1 4.425 7.347 50.034 50.034 0 0 0 15.088 19.903 37.722 37.722 0 0 0 24.714 8.584 43.072 43.072 0 0 0 26.017-8.193 43.811 43.811 0 0 0 15.935-20.75 26.95 26.95 0 0 1 5.203-6.89 10.316 10.316 0 0 1 7.155-3.578c4.385 0.042 8.753 0.608 13.004 1.688a81.568 81.568 0 0 1 13.594 4.62 51.45 51.45 0 0 1 12.357 7.541 39.503 39.503 0 0 1 8.976 10.016 9.703 9.703 0 0 1 1.237 7.351 26.09 26.09 0 0 1-1.692 5.658 44.476 44.476 0 0 0-3.319 25.556 41.492 41.492 0 0 0 12.164 23.48 37.66 37.66 0 0 0 24.713 11.121 53.964 53.964 0 0 0 27.19-4.81 13.85 13.85 0 0 1 16.321 2.08 49.21 49.21 0 0 1 11.125 17.818 100.796 100.796 0 0 1 6.504 24.132 14.54 14.54 0 0 1-2.608 11.063z m-109 11.772a91.949 91.949 0 0 0-19.513-28.94 91.057 91.057 0 0 0-64.647-26.603 88.344 88.344 0 0 0-35.382 7.09 91.054 91.054 0 0 0-48.322 48.453 91.683 91.683 0 0 0 0 70.825 94.18 94.18 0 0 0 19.513 29.139 89.88 89.88 0 0 0 28.874 19.511 88.433 88.433 0 0 0 35.382 7.086 90.141 90.141 0 0 0 64.646-26.793 94.257 94.257 0 0 0 19.513-29.138 91.717 91.717 0 0 0-0.064-70.63zM443.547 541.697c-133.65-1.79-240.714-111.272-239.522-244.926 1.188-133.658 110.184-241.213 243.847-240.62 133.659 0.585 241.703 109.1 241.715 242.758-1.077 134.938-111.165 243.543-246.106 242.789h0.066z m163.44 31.349a256.959 256.959 0 0 0-93.86 195.817 256.953 256.953 0 0 0 89.636 197.788h-422.36a123.558 123.558 0 0 1-90.395-39.95 123.579 123.579 0 0 1-32.2-93.439 168.224 168.224 0 0 1 14.247-61.333C142.399 630.113 287.458 540.82 445.76 541.892a439.237 439.237 0 0 1 161.164 31.154h0.062z m0 0" p-id="1981"></path></svg>